<svg xmlns="http://www.w3.org/2000/svg" xmlns:xlink="http://www.w3.org/1999/xlink">
  <symbol id="icon-accessories" viewBox="0 0 20 42">
    <path
      d="M13.889 5.846V16.41c-.251 1.03-1.882 1.803-3.826 1.803-1.945 0-3.575-.773-3.826-1.803V5.661c0-.065 0-.194.063-.258.313-.772 1.881-1.352 3.826-1.352 1.944 0 3.585.557 3.669 1.352 0 0 .094.314.094.443z"
      stroke="#fff" stroke-width="2" stroke-miterlimit="10"/>
    <path
      d="M10 4.051c-.44 0-.753-.386-.753-.772v-1.61c0-.45.376-.772.752-.772.44 0 .753.386.753.773v1.609c0 .45-.314.772-.753.772z"
      fill="#fff"/>
    <path d="M9.246 2.12s-.25 1.352-2.32 1.996h3.073L9.246 2.12zm1.506 0s.25 1.352 2.32 1.996H10l.753-1.996z"
          fill="#fff"/>
    <path d="M12.07 18.02H7.93v2.124h4.14V18.02z" fill="#fff" fill-opacity=".7"/>
    <path
      d="M10 21.496c2.979 0 5.394-.346 5.394-.773 0-.426-2.415-.772-5.394-.772-2.98 0-5.394.346-5.394.772 0 .427 2.415.773 5.394.773zm-5.394-1.095v3.734m10.788-3.412v3.669m3.575.515c0 .708-4.014 1.867-8.97 1.867-4.954 0-8.968-1.094-8.968-1.867 0-.257 2.07-1.352 3.575-1.352 1.003.258 3.889.515 5.394.515 1.505 0 4.453-.257 5.394-.515 1.568.065 3.575 1.095 3.575 1.352z"
      stroke="#fff" stroke-width="2" stroke-miterlimit="10"/>
    <path
      d="M15.394 26.323v5.73c0 .579-2.446 1.03-5.394 1.03s-5.394-.451-5.394-1.03v-5.73m1.505 6.244v5.793m7.778-5.793v5.793"
      stroke="#fff" stroke-width="2" stroke-miterlimit="10"/>
    <path d="M11.004 40.485H8.997c-.44 0-.816-.386-.816-.837v-6.566h3.575v6.566c.063.45-.313.837-.752.837z"
          stroke="#fff" stroke-width="2" stroke-miterlimit="10"/>
  </symbol>
  <symbol id="icon-arrow-left" viewBox="0 0 14 10">
    <path fill-rule="evenodd" clip-rule="evenodd"
          d="M2.85 4.027L5.72 1.05 4.67 0 0 4.777l4.454 4.44 1.05-1.05-2.654-2.64 10.394.026v-1.5L2.85 4.027z"/>
  </symbol>
  <symbol id="icon-arrow-right" viewBox="0 0 6 10">
    <path fill-rule="evenodd" clip-rule="evenodd" d="M1 10l5-5-5-5-1 1 4 4-4 4 1 1z" fill="#D1D1D6"/>
  </symbol>
  <symbol id="icon-basket" viewBox="0 0 27 24">
    <path
      d="M0 1.832h3.314a1 1 0 01.96.72l3.643 12.466a1 1 0 00.96.72h12.717a1 1 0 00.963-.73l2.484-8.815a1 1 0 00-.963-1.271H8.128m5.096 15.451c0 1.167-.93 2.09-2.048 2.09-1.118 0-2.048-.923-2.048-2.09 0-1.168.93-2.09 2.048-2.09 1.118 0 2.048.922 2.048 2.09zm8.127 0c0 1.167-.93 2.09-2.048 2.09-1.118 0-2.048-.923-2.048-2.09 0-1.168.93-2.09 2.048-2.09 1.118 0 2.048.922 2.048 2.09z"/>
  </symbol>
  <symbol id="icon-burger" viewBox="0 0 33 28">
    <rect y=".832" width="33" height="3" rx="1.5"/>
    <rect y="12.832" width="33" height="3" rx="1.5"/>
    <rect y="24.832" width="33" height="3" rx="1.5"/>
  </symbol>
  <symbol id="icon-check" viewBox="0 0 8 6">
    <path fill-rule="evenodd" clip-rule="evenodd"
          d="M2.545 4.746L.636 2.866 0 3.493 2.545 6 8 .627 7.364 0 2.545 4.746z" fill="#fff"/>
  </symbol>
  <symbol id="icon-chemicals" viewBox="0 0 29 41">
    <path
      d="M22.733 5.227s0 1.423.556 2.412c.371.619 2.289 3.34 3.464 4.763.743.866.557 1.732.557 1.918v23.938c0 .556-.495.928-1.175.928H3.186c-.618 0-.866-.371-.866-.928V17.845c0-1.917.619-3.71 2.475-4.948l11.195-5.32c.928-.433 1.547-1.237 1.609-2.103v-.309h5.134v.062z"
      stroke="#fff" stroke-width="3" stroke-miterlimit="10"/>
    <path
      d="M22.732 5.536h-5.567a.62.62 0 01-.618-.618V2.134a.62.62 0 01.618-.618h5.567a.62.62 0 01.619.618v2.784c0 .309-.31.618-.619.618zM11.6 29.041h12.37M11.6 33.99h8.04"
      stroke="#fff" stroke-width="3" stroke-miterlimit="10"/>
  </symbol>
  <symbol id="icon-compare" viewBox="0 0 20 28">
    <rect x="16" y="15.771" width="4" height="11.726" rx="2" fill="#CDCDCD"/>
    <rect x="8" y=".528" width="4" height="26.969" rx="2" fill="#CDCDCD"/>
    <rect y="9.908" width="4" height="17.588" rx="2" fill="#CDCDCD"/>
  </symbol>
  <symbol id="icon-delivery" viewBox="0 0 17 17">
    <path d="M10.635 3.143h5.9v12.021c0 .518-.465.836-.97.836H1.357c-.504 0-.893-.398-.893-.916V3.143h5.823"/>
    <path d="M10.85 3.143h5.63c.04 0 .078-.032.04-.064L14.423 1H2.578L.48 3.079c-.038.032 0 .064.04.064h5.63"/>
    <path
      d="M11.178 3.143L10.247 1h-3.4L5.82 3.143m5.358 0v4.286l-2.61-1.506-2.747 1.506V3.143m4.629 8.571H6.587c-.443 0-.765-.438-.765-.925v-.292c0-.536.363-.926.765-.926h3.825c.442 0 .764.439.764.926v.292c.04.536-.322.925-.724.925z"/>
  </symbol>
  <symbol id="icon-electric" viewBox="0 0 60 60">
    <path stroke="#fff" stroke-width="2" d="M14.608 26.979H46.01v16.557H14.608z"/>
    <rect x="12.134" y="20.794" width="36.35" height="2.33" rx="1.165" stroke="#fff" stroke-width="2"/>
    <path stroke="#fff" stroke-width="1.856" d="M21.34 15.155h17.938v1.856H21.34z"/>
    <path
      d="M15.464 15.773a1.546 1.546 0 113.093 0v2.165h-3.093v-2.165zm26.598.309a1.856 1.856 0 113.711 0v1.856h-3.711v-1.855z"
      fill="#fff"/>
    <rect x="37.573" y="31.599" width="1.109" height="7.023" rx=".554" fill="#fff"/>
    <rect x="34.617" y="35.665" width="1.109" height="7.023" rx=".554" transform="rotate(-90 34.617 35.665)"
          fill="#fff"/>
    <rect x="19.175" y="35.877" width="1.237" height="6.804" rx=".619" transform="rotate(-90 19.175 35.877)"
          fill="#fff"/>
  </symbol>
  <symbol id="icon-favorite" viewBox="0 0 26 23">
    <path clip-rule="evenodd"
          d="M6.99 1.04c-3.658 0-6.561 3.372-5.894 8.214.58 4.202 10.555 12.592 11.663 12.592 1.108 0 11.083-8.39 11.663-12.592.667-4.842-2.236-8.215-5.893-8.215-2.439 0-4.338 1.031-5.77 3.092C11.327 2.07 9.427 1.04 6.989 1.04z"/>
  </symbol>
  <symbol id="icon-filter" viewBox="0 0 15 15">
    <path
      d="M13.978 1.031l-4.474 6.45a.02.02 0 00-.004.012v2.98a.02.02 0 01-.006.013l-3.96 3.952a.02.02 0 01-.034-.014V7.493a.02.02 0 00-.004-.011l-4.474-6.45A.02.02 0 011.038 1h12.924a.02.02 0 01.016.031z"
      stroke="#48494D"/>
  </symbol>
  <symbol id="icon-location" viewBox="0 0 25 29">
    <path
      d="M13.656 17.711l-.849.529.85-.529a2 2 0 00-1.265-.895l-.217.977.217-.977-10.895-2.418 22.455-12.57-4.395 25.355-5.9-9.472z"/>
  </symbol>
  <symbol id="icon-logo" viewBox="0 0 70 39">
    <path
      d="M24.68 6.463a20.033 20.033 0 00-2.142 4.617H5.37C1.318 10.692 0 6.463 0 6.463h24.68zm-2.743 17.544H11.81c-4.083-.388-5.412-4.617-5.412-4.617h14.61c.1 1.621.431 3.172.93 4.617zm3.657 4.616h-8.138c-4.205-.31-5.573-3.693-5.573-3.693H22.79c.718 1.325 1.641 2.594 2.804 3.693zm-4.16-11.326v.246H8.212c-4.127-.387-5.47-4.616-5.47-4.616h19.195a18.513 18.513 0 00-.503 4.37z"
      fill="#48494D"/>
    <path
      d="M47.678 8.585c-1.536-2.578-3.55-3.968-5.668-3.968-1.263 0-2.493.508-3.62 1.492.752.644 1.435 1.458 2.05 2.476 1.672 2.747 2.595 6.41 2.595 10.343 0 3.934-.922 7.597-2.596 10.344-.614 1.018-1.297 1.865-2.048 2.476 1.126.983 2.356 1.492 3.62 1.492 2.082 0 4.097-1.424 5.667-3.968 1.673-2.747 2.595-6.41 2.595-10.344 0-3.934-.922-7.596-2.595-10.343z"
      fill="#FF7931"/>
    <path
      d="M42.047 0c-6.572 0-11.883 8.48-11.883 18.928s5.344 18.929 11.883 18.929c6.572 0 11.882-8.48 11.882-18.929C53.963 8.48 48.62 0 42.047 0zm5.642 29.139c-1.493 2.578-3.452 3.969-5.51 3.969-2.024 0-3.983-1.425-5.51-3.97-1.626-2.747-2.522-6.41-2.522-10.345 0-3.935.896-7.599 2.523-10.346 1.493-2.579 3.452-3.97 5.51-3.97 2.024 0 3.983 1.425 5.51 3.97 1.626 2.747 2.522 6.41 2.522 10.346 0 3.9-.896 7.598-2.523 10.346z"
      fill="#48494D"/>
    <path
      d="M30.825 18.928C30.825 8.65 36.215.271 42.96 0h-.348c-6.885 0-12.449 8.48-12.449 18.928s5.599 18.929 12.45 18.929h.347c-6.746-.272-12.136-8.65-12.136-18.929z"
      fill="#FF7931"/>
    <path
      d="M41.898 34.026h-.431l-.132-.034-.132-.034h-.133l-.298-.069c-.033 0-.099-.034-.132-.034l-.133-.034-.132-.035a.247.247 0 01-.132-.068l-.265-.103-.265-.137c-.033-.034-.1-.034-.133-.069l-.132-.068c-.066-.035-.165-.103-.232-.137l-.231-.172-.133-.068-.1-.103-.23-.171-.2-.206-.397-.412a10.435 10.435 0 01-1.39-1.816 16.492 16.492 0 01-1.026-2.023c-.298-.72-.53-1.44-.762-2.159-.1-.377-.198-.72-.298-1.097l-.132-.548c-.033-.172-.066-.377-.1-.549a26.416 26.416 0 01-.397-4.558 26.42 26.42 0 01.397-4.559c.034-.172.067-.377.1-.549l.132-.548c.1-.377.166-.754.298-1.097.199-.72.464-1.44.762-2.16.298-.685.629-1.37 1.026-2.022a10.44 10.44 0 011.39-1.817l.398-.41.198-.207.232-.17.1-.104.132-.068.231-.172c.067-.034.166-.102.232-.137l.133-.068c.033-.035.099-.035.132-.069l.265-.137.265-.103c.033-.034.099-.034.132-.068l.133-.035.132-.034c.033 0 .1-.034.132-.034l.298-.069h.133l.132-.034.133-.034h.86l.133.034.132.034h.132l.298.069c.033 0 .1.034.133.034l.132.034.133.035c.033 0 .099.034.132.034l.265.103.265.137c.033.034.1.034.132.068l.133.069c.099.034.165.103.264.137l.232.171.133.069.099.103.232.171c.066.069.132.137.231.206.166.137.298.274.43.411a9.199 9.199 0 011.424 1.817c.43.651.795 1.337 1.093 2.022.298.72.563 1.44.794 2.16.232.754.398 1.474.563 2.262.132.754.265 1.508.331 2.296a26.644 26.644 0 010 4.594 18.278 18.278 0 01-.331 2.296c-.298 1.508-.728 3.017-1.357 4.422-.298.72-.695 1.37-1.093 2.022-.43.651-.894 1.268-1.423 1.817-.133.137-.265.274-.43.411a1.452 1.452 0 01-.232.206l-.232.171-.1.103-.132.069-.232.171c-.099.034-.165.103-.264.137l-.133.069c-.033.034-.1.034-.132.068l-.265.137-.265.103c-.033 0-.1.034-.132.034l-.133.035-.132.034c-.033 0-.1.034-.133.034l-.298.069h-.132l-.132.034-.133.034h-.132l-.298-.137zm0-.582h.397l.133-.035.132-.034h.132l.265-.069c.033 0 .066-.034.133-.034l.132-.034.133-.034c.033 0 .066-.035.132-.035l.232-.102.231-.103c.033-.035.067-.035.133-.069l.1-.068c.065-.035.165-.103.23-.137l.233-.138.099-.068.1-.069.198-.171c.066-.069.132-.103.198-.172.133-.102.265-.24.398-.377a9.189 9.189 0 001.29-1.713c.365-.617.696-1.269.994-1.954.298-.686.53-1.371.728-2.091.1-.343.199-.72.265-1.063l.133-.548c.033-.172.066-.377.099-.549.132-.72.231-1.473.298-2.193a25.082 25.082 0 000-4.456 23.286 23.286 0 00-.298-2.194c-.033-.171-.066-.377-.1-.548l-.132-.549c-.1-.377-.165-.72-.265-1.062-.198-.72-.43-1.406-.728-2.091a17.791 17.791 0 00-.993-1.954 9.187 9.187 0 00-1.291-1.714c-.133-.137-.232-.274-.398-.377a.885.885 0 00-.198-.171l-.199-.172-.1-.068-.098-.069-.232-.137c-.066-.034-.166-.103-.232-.137l-.1-.069c-.032-.034-.065-.034-.132-.068l-.231-.103-.232-.103c-.033 0-.066-.034-.133-.034l-.132-.034-.132-.035c-.034 0-.067-.034-.133-.034l-.265-.068h-.132l-.133-.035-.132-.034h-1.192l-.264.069c-.034 0-.1.034-.133.034l-.132.034-.133.034c-.033 0-.066.035-.132.035l-.232.102-.232.103c-.033.035-.066.035-.132.069l-.1.068c-.066.035-.165.103-.231.138l-.232.137-.1.068-.098.069-.2.171c-.065.069-.132.103-.198.171-.132.103-.265.24-.397.378-.53.514-.96 1.096-1.357 1.713a13.744 13.744 0 00-1.06 1.954 15.717 15.717 0 00-.761 2.091c-.232.72-.397 1.44-.53 2.194a25.68 25.68 0 00-.298 2.228 25.857 25.857 0 000 4.524c.067.754.166 1.508.298 2.228a17.79 17.79 0 001.325 4.285c.297.686.662 1.337 1.059 1.954.397.617.86 1.2 1.357 1.714.133.137.265.24.397.377.067.068.133.102.199.171l.199.171.099.069.1.069.231.137c.066.034.166.102.232.137l.1.068c.032.035.065.035.132.069l.231.103.232.102c.033 0 .066.035.132.035l.133.034.132.034c.033 0 .066.035.133.035l.264.068h.53l.232-.068z"
      fill="#fff"/>
    <path
      d="M41.133 37.857H29.07c-6.472 0-11.703-8.48-11.703-18.929C17.367 8.48 22.63 0 29.07 0h12.063C34.66 0 29.43 8.48 29.43 18.928s5.23 18.929 11.703 18.929z"
      fill="#FF7931"/>
    <path
      d="M30.784 27.807c-.326-.985-.587-2.037-.816-3.09-.163-.916-.326-1.833-.424-2.784a26.045 26.045 0 01-.13-2.784v-.204c0-.916.032-1.833.13-2.75.098-1.188.294-2.309.522-3.429.914-4.346 2.808-7.979 5.223-10.254a10.05 10.05 0 011.992-1.46c.555-.305 1.142-.577 1.73-.746A7.407 7.407 0 0140.74 0h.392-12.437a7.718 7.718 0 00-1.73.306c-.588.17-1.175.44-1.73.747a11.61 11.61 0 00-1.992 1.46c-2.415 2.274-4.309 5.907-5.223 10.253a35.752 35.752 0 00-.522 3.43c-.066.882-.13 1.799-.13 2.75v.203c0 .95.065 1.867.13 2.784.098.95.228 1.901.424 2.784.229 1.087.49 2.105.816 3.09 1.959 5.975 5.844 10.05 10.316 10.05H41.1c-4.472 0-8.357-4.075-10.316-10.05z"
      fill="#FF7931"/>
    <path
      d="M41.956 38.145c-.236 0-.507 0-.743-.035-1.792-.102-3.583-.034-5.374-.068a3.402 3.402 0 01-.845-.205c1.927.069 3.38.103 5.374.137a5.352 5.352 0 01-.71-.171c-.135-.034-.372 0-.507 0-2.095-.068-4.09-.137-4.833-.171-.27-.102-.54-.24-.81-.376 1.925.103 3.379.17 5.339.24a4.185 4.185 0 01-.676-.343c-.135-.034-.372-.034-.507-.034-2.095-.102-4.157-.239-4.799-.273-.27-.171-.507-.342-.777-.513 1.892.137 3.38.24 5.306.342-.203-.137-.44-.308-.642-.444-.136-.069-.338-.035-.507-.035-2.062-.136-4.123-.307-4.8-.341-.236-.205-.473-.445-.71-.65 1.894.171 3.313.274 5.273.445a9.54 9.54 0 01-.608-.581c-.135-.069-.338-.035-.507-.035-2.062-.17-3.954-.376-4.765-.444a7.19 7.19 0 01-.643-.786c2.13.205 3.65.376 5.239.513a5.292 5.292 0 01-.54-.684 348.82 348.82 0 00-5.205-.547 13.732 13.732 0 01-.575-.923c2.13.24 3.616.41 5.17.616a6.032 6.032 0 01-.472-.787c-2.13-.239-3.448-.41-5.171-.65-.17-.34-.338-.683-.507-1.024 1.791.239 3.312.444 5.137.683-.135-.273-.27-.581-.406-.889-2.095-.273-3.38-.444-5.103-.717-.135-.376-.304-.752-.44-1.128 1.792.273 3.245.478 5.07.752-.135-.308-.236-.65-.338-.957-2.061-.308-3.413-.513-5.035-.752-.136-.41-.237-.787-.338-1.197 1.825.308 3.143.513 5.002.787-.102-.342-.17-.684-.27-1.026-1.758-.273-3.144-.513-5.003-.82a14.66 14.66 0 01-.236-1.3c1.926.343 2.974.514 4.968.855-.068-.376-.135-.717-.17-1.093-2.027-.342-3.21-.547-4.933-.855-.068-.444-.102-.889-.136-1.333 2.096.376 3.008.547 4.867.889l-.101-1.128c-2.028-.376-3.177-.581-4.833-.889v-1.401c4.021.752 4.021.752 4.799.923v-1.197c-.98-.17-3.684-.683-4.765-.888.033-.445.067-.923.101-1.367 1.859.341 3.244.615 4.731.888l.102-1.128c-2.028-.376-2.94-.547-4.698-.854.068-.445.135-.889.203-1.3.034-.17.067-.375.101-.546-.034.171-.067.342-.101.547 2.028.376 2.67.478 4.664.854.067-.376.135-.717.202-1.093a218.857 218.857 0 00-4.63-.82l.305-1.231c1.892.342 2.805.478 4.596.786.101-.342.169-.684.27-1.025-1.52-.274-3.041-.513-4.562-.787.135-.376.27-.786.405-1.162 1.86.308 3.008.479 4.529.752.101-.307.237-.65.338-.957-1.96-.307-3.38-.547-4.529-.717.17-.376.304-.718.507-1.06 1.86.273 2.84.444 4.495.684.135-.308.27-.582.44-.89-1.86-.273-3.008-.443-4.462-.649.17-.341.372-.649.575-.957.067-.136.169-.239.236-.376-.1.137-.169.24-.236.376 1.825.24 2.906.41 4.427.616.17-.274.338-.513.473-.787-1.825-.239-3.041-.41-4.427-.58.203-.274.406-.547.642-.82 1.791.204 2.907.34 4.394.512.169-.24.371-.479.54-.684a390.163 390.163 0 00-4.36-.478c.237-.24.474-.479.71-.684 1.792.171 2.907.308 4.36.444.203-.205.406-.376.608-.58-1.79-.172-2.974-.274-4.325-.41.236-.206.507-.377.743-.548 1.758.137 2.839.24 4.326.342.203-.17.44-.307.642-.444-1.757-.137-2.906-.205-4.292-.308l.811-.41c1.758.103 2.839.17 4.292.24.237-.103.44-.24.676-.308C37.225.615 36.076.58 34.724.513c.27-.103.574-.171.845-.24 1.757.034 2.839.103 4.258.137.237-.068.473-.137.71-.17-1.758-.035-2.873-.07-4.259-.103a8.81 8.81 0 01.947-.069h-1.048c-6.692 0-12.099 8.545-12.099 19.073 0 10.527 5.441 19.072 12.099 19.072h1.048l-.575-.034c2.13-.034 3.616-.034 5.306-.034z"
      fill="#48494D"/>
    <path
      d="M22.963 19.072C22.963 8.545 28.404 0 35.062 0h-1.048a8.83 8.83 0 00-.98.068c-2.197.035-3.684.069-5.07.103-.236.034-.472.102-.709.17 2.4-.068 4.123-.102 5.036-.136-.27.068-.575.137-.845.24-2.197.068-3.752.136-5.036.204a13.12 13.12 0 00-.676.308c2.095-.102 3.65-.17 5.002-.24-.27.137-.54.24-.811.41-2.163.103-3.718.206-5.002.274-.203.137-.44.274-.642.445 2.197-.137 3.616-.24 5.002-.342a5.98 5.98 0 00-.744.547c-2.163.17-3.65.273-4.968.376-.203.17-.405.376-.608.58 2.163-.204 3.65-.307 4.968-.41-.237.206-.473.445-.71.684-2.129.205-3.683.342-4.934.479a5.215 5.215 0 00-.54.683c2.162-.239 3.615-.376 4.9-.512-.203.273-.44.547-.642.82-2.13.24-3.515.376-4.9.547-.17.24-.339.513-.474.786 2.028-.24 3.549-.41 4.867-.581-.203.308-.372.615-.575.957-2.13.273-3.346.41-4.833.615-.135.274-.304.581-.44.889 2.13-.274 3.482-.479 4.834-.65a9.81 9.81 0 00-.473 1.06c-2.096.274-3.515.479-4.8.684a7.947 7.947 0 00-.337.957c1.994-.308 3.548-.513 4.765-.684-.135.376-.27.752-.406 1.162-2.23.342-3.92.615-4.731.718-.101.342-.203.684-.27 1.025a487.51 487.51 0 004.73-.752l-.303 1.231c-2.028.342-3.414.547-4.698.786a67.22 67.22 0 00-.203 1.094l4.664-.786c-.067.444-.135.854-.203 1.299-1.994.341-3.278.58-4.63.82l-.101 1.128a284.25 284.25 0 014.596-.82c-.034.444-.067.888-.101 1.367-2.13.41-3.82.717-4.563.854v1.197c1.521-.274 3.008-.582 4.53-.855v.342c0 .342 0 .718.033 1.06-2.197.41-3.92.751-4.495.854l.101 1.128a374.53 374.53 0 004.461-.82c.034.444.068.888.136 1.332-.811.137-2.434.445-4.428.82.068.377.102.719.17 1.095 2.027-.376 3.447-.616 4.393-.787.067.445.135.855.236 1.3-2.095.375-3.785.683-4.36.751.068.342.17.684.271 1.026 1.994-.342 3.447-.581 4.326-.752.101.41.203.82.338 1.196-1.927.308-2.94.479-4.292.718.101.342.236.65.338.957 1.994-.308 3.346-.547 4.258-.684.135.376.27.752.44 1.128-1.86.308-3.11.479-4.225.65.135.307.27.58.405.888 1.96-.307 3.38-.513 4.225-.65l.507 1.026c.067.137.135.274.236.41-.067-.136-.169-.273-.236-.41-1.859.274-3.143.445-4.19.616.168.273.303.546.472.786 1.96-.274 3.38-.445 4.157-.582.203.308.372.616.575.923-1.724.24-3.008.376-4.157.513.169.24.372.479.54.684 1.792-.205 3.009-.342 4.124-.479.203.274.44.547.642.786-1.791.205-2.974.342-4.09.445.203.205.406.41.609.58 1.757-.17 3.042-.307 4.09-.41.236.24.472.445.709.65.068.034.101.102.169.137-.068-.035-.101-.103-.17-.137-1.79.17-2.973.273-4.055.376.203.17.44.308.642.444a202.76 202.76 0 004.056-.342c.237.171.507.342.777.513-1.926.137-3.312.24-4.021.274.236.102.439.239.675.341 1.758-.102 3.008-.17 4.022-.239.27.137.541.24.811.376-1.892.103-3.312.137-4.021.171.236.068.473.137.71.171 1.723-.034 2.94-.103 3.987-.137.27.069.575.137.845.205-1.892.035-3.244.069-3.988.069.237.034.507.034.744.034h.033c1.86 0 3.177 0 3.955-.034.169 0 .371.034.54.034h1.048c-6.658 0-12.065-8.545-12.065-19.073z"
      fill="#48494D"/>
    <path
      d="M60.26 12.14c2.81-1.36 3.825-4.283 3.86-4.453l.405-1.224H45.703l1.015 1.462a16.246 16.246 0 012.065 4.216l.17.544.135.612c.305 1.291.474 2.651.474 3.977v.782l-.034.578c-.101 1.428-.44 2.856-.914 4.215l-.17.476-.202.442c-.643 1.53.474 2.958-.61 4.216l-1.252 1.564h3.622c4.706-.408 6.263-4.896 6.33-5.1l.102-.34h.034c4.706-.408 6.263-4.895 6.33-5.1l.272-.781c3.758-.986 5.01-4.725 5.078-4.895l.406-1.224H60.26v.034z"
      fill="#fff"/>
    <path
      d="M44.79 6.463a20.005 20.005 0 012.14 4.617h17.168c4.053-.388 5.37-4.617 5.37-4.617H44.79zm2.74 17.544h10.128c4.084-.388 5.412-4.617 5.412-4.617H48.46c-.132 1.621-.431 3.172-.93 4.617zm-2.74 4.616h8.137c4.205-.31 5.573-3.693 5.573-3.693H47.593a15.56 15.56 0 01-2.804 3.693zM48 17.297v.246h13.256c4.128-.387 5.47-4.616 5.47-4.616H47.531c.302 1.374.47 2.854.47 4.37z"
      fill="#FF7931"/>
  </symbol>
  <symbol id="icon-packet" viewBox="0 0 22 26">
    <path d="M5.545 6.538S5.545 1 11 1c5.454 0 5.454 5.538 5.454 5.538M1 6.538V25h20V6.538H1z" stroke="#fff"
          stroke-width="2" stroke-linecap="round" stroke-linejoin="round"/>
  </symbol>
  <symbol id="icon-percent" viewBox="0 0 15 16">
    <path
      d="M4.011 7.692a3.7 3.7 0 01-1.386-.252 3.482 3.482 0 01-1.05-.714 3.381 3.381 0 01-.693-1.092 3.935 3.935 0 01-.231-1.365c0-.49.077-.945.231-1.365.168-.434.399-.805.693-1.113a2.912 2.912 0 011.05-.735c.42-.182.882-.273 1.386-.273.504 0 .966.091 1.386.273.42.168.777.413 1.071.735.294.308.525.679.693 1.113.168.42.252.875.252 1.365s-.084.945-.252 1.365c-.168.42-.399.784-.693 1.092a3.415 3.415 0 01-1.071.714 3.7 3.7 0 01-1.386.252zM2.688 15L11.634.993h1.155L3.822 15H2.688zm8.631.252A3.7 3.7 0 019.933 15a3.482 3.482 0 01-1.05-.714 3.381 3.381 0 01-.693-1.092 3.935 3.935 0 01-.231-1.365c0-.49.077-.945.231-1.365.168-.434.399-.805.693-1.113a2.912 2.912 0 011.05-.735c.42-.182.882-.273 1.386-.273.504 0 .959.091 1.365.273.42.168.777.413 1.071.735.294.308.525.679.693 1.113.168.42.252.875.252 1.365s-.084.945-.252 1.365c-.168.42-.399.784-.693 1.092a3.415 3.415 0 01-1.071.714 3.54 3.54 0 01-1.365.252zm-7.308-8.61a2.022 2.022 0 001.533-.693c.196-.21.343-.455.441-.735.112-.294.168-.609.168-.945 0-.7-.203-1.274-.609-1.722-.392-.462-.903-.693-1.533-.693-.63 0-1.141.231-1.533.693-.378.448-.567 1.022-.567 1.722 0 .672.189 1.239.567 1.701.392.448.903.672 1.533.672zm7.308 7.56a2.022 2.022 0 001.533-.693c.196-.21.343-.455.441-.735.112-.294.168-.609.168-.945 0-.7-.203-1.274-.609-1.722-.392-.462-.903-.693-1.533-.693-.63 0-1.141.231-1.533.693-.392.448-.588 1.022-.588 1.722 0 .336.049.651.147.945.112.28.259.525.441.735.182.21.399.378.651.504.266.126.56.189.882.189z"/>
  </symbol>
  <symbol id="icon-search" viewBox="0 0 23 24">
    <path
      d="M22.725 22.206l-5.459-5.348c1.78-1.802 2.908-4.244 2.908-6.976C20.174 4.418 15.664 0 10.087 0 4.509 0 0 4.418 0 9.882c0 5.464 4.51 9.882 10.087 9.882 2.136 0 4.153-.697 5.815-1.802l5.577 5.464c.178.175.415.233.653.233.237 0 .474-.058.652-.233a.886.886 0 00-.059-1.22zM1.78 9.882c0-4.476 3.738-8.138 8.307-8.138 4.569 0 8.307 3.662 8.307 8.138s-3.738 8.138-8.307 8.138c-4.569 0-8.307-3.662-8.307-8.138z"
      fill="#48494D"/>
  </symbol>
  <symbol id="icon-shops" viewBox="0 0 15 18">
    <path
      d="M5.833 11.029a.5.5 0 00-.5.5V16.1a.5.5 0 01-.5.5H1.5a.5.5 0 01-.5-.5V6.801a.5.5 0 01.175-.38l6-5.142a.5.5 0 01.65 0l6 5.143a.5.5 0 01.175.38V16.1a.5.5 0 01-.5.5h-3.333a.5.5 0 01-.5-.5v-4.571a.5.5 0 00-.5-.5H5.833z"/>
  </symbol>
  <symbol id="icon-small-arrow" viewBox="0 0 6 11">
    <path
      d="M.229 9.69a.778.778 0 00-.025 1.074.718.718 0 001.039.026L5.79 6.24a.804.804 0 00-.025-1.11L1.243.607A.718.718 0 00.203.63a.778.778 0 00.024 1.074l3.58 3.642a.5.5 0 010 .701L.229 9.69z"/>
  </symbol>
  <symbol id="icon-sort" viewBox="0 0 19 13">
    <path fill-rule="evenodd" clip-rule="evenodd"
          d="M4.75 13V2.058l2.955 3.034.74-.759L4.221 0 0 4.333l.739.759 2.955-3.034V13H4.75zm9.5-13v10.942l-2.955-3.034-.74.759L14.779 13 19 8.667l-.739-.759-2.955 3.034V0H14.25z"
          fill="#48494D"/>
  </symbol>
  <symbol id="icon-star" viewBox="0 0 23 21">
    <path
      d="M11.113 0l2.59 7.946h8.382l-6.781 4.911 2.59 7.947-6.781-4.911-6.782 4.91 2.59-7.946L.14 7.947h8.382L11.112 0z"/>
  </symbol>
  <symbol id="icon-summer" viewBox="0 0 31 31">
    <path
      d="M6.522 8.516a1.409 1.409 0 101.992-1.993L6.542 4.55a1.41 1.41 0 00-2.002-.01c-.55.55-.555 1.437.01 2.002l1.972 1.974zm23.057 5.575h-2.79c-.787 0-1.424.626-1.424 1.409 0 .779.624 1.409 1.424 1.409h2.79a1.41 1.41 0 100-2.818zM5.635 15.5a1.41 1.41 0 00-1.423-1.409h-2.79A1.41 1.41 0 000 15.5c0 .779.624 1.409 1.421 1.409h2.791c.786 0 1.423-.624 1.423-1.409zM15.5 7.044a8.453 8.453 0 000 16.904 8.454 8.454 0 008.452-8.452A8.454 8.454 0 0015.5 7.044zm0 14.087a5.635 5.635 0 110-11.27 5.635 5.635 0 010 11.27zm-8.978 1.355L4.55 24.458a1.409 1.409 0 101.992 1.992l1.972-1.972a1.41 1.41 0 00.01-2.002 1.406 1.406 0 00-2.002.01zm17.956-13.97l1.972-1.974a1.413 1.413 0 00.01-2.002 1.409 1.409 0 00-2.002.01l-1.972 1.972a1.411 1.411 0 00-.01 2.002 1.41 1.41 0 002.002-.008zM15.5 25.365c-.779 0-1.409.626-1.409 1.424v2.79A1.41 1.41 0 0015.5 31c.779 0 1.409-.623 1.409-1.421v-2.79c0-.787-.624-1.424-1.409-1.424zm8.978-2.879a1.408 1.408 0 10-1.992 1.992l1.972 1.972a1.413 1.413 0 002.002.01c.55-.55.555-1.439-.01-2.002l-1.972-1.972zM15.5 5.635c.779 0 1.409-.624 1.409-1.423v-2.79a1.408 1.408 0 10-2.817 0v2.79c0 .786.625 1.423 1.408 1.423z"
      fill="#FF7931"/>
  </symbol>
  <symbol id="icon-timer" viewBox="0 0 28 28">
    <path fill-rule="evenodd" clip-rule="evenodd"
          d="M25.2 13.985A11.21 11.21 0 0015.4 2.86v3.185a1.4 1.4 0 11-2.8 0V2.31C12.6.943 13.785-.03 14.936 0c.069.003.137.009.205.015l.068.006C22.375.635 28 6.652 28 13.985 28 21.725 21.732 28 14 28S0 21.725 0 13.985c0-3.766 1.493-7.3 4.1-9.91a1.399 1.399 0 011.98 0 1.403 1.403 0 010 1.982 11.177 11.177 0 00-3.28 7.928c0 6.192 5.014 11.212 11.2 11.212 6.186 0 11.2-5.02 11.2-11.212zM12.393 15.68a2.344 2.344 0 01-.334-.421l-.003.002L7.415 7.78a.28.28 0 01.385-.386l7.475 4.646-.003.003a2.337 2.337 0 01.42 3.638 2.332 2.332 0 01-3.3 0z"
          fill="#C4C4C4"/>
  </symbol>
  <symbol id="icon-tire" viewBox="0 0 42 42">
    <path
      d="M20.618 40.103c10.761 0 19.485-8.723 19.485-19.484 0-10.761-8.724-19.485-19.485-19.485-10.76 0-19.484 8.724-19.484 19.485 0 10.76 8.723 19.484 19.484 19.484z"
      stroke="#fff" stroke-width="2" stroke-miterlimit="10"/>
    <path
      d="M20.62 35.59c8.268 0 14.972-6.702 14.972-14.971 0-8.27-6.704-14.973-14.973-14.973-8.269 0-14.972 6.704-14.972 14.973 0 8.269 6.703 14.972 14.972 14.972z"
      stroke="#fff" stroke-width="2" stroke-miterlimit="10"/>
    <path d="M20.619 26.703a6.085 6.085 0 100-12.17 6.085 6.085 0 000 12.17z" stroke="#fff" stroke-width="2"
          stroke-miterlimit="10"/>
    <path
      d="M20.619 23.9a3.35 3.35 0 100-6.7 3.35 3.35 0 000 6.7zM15.902 6.398c.137.616.273 1.3.273 1.915a7.79 7.79 0 01-7.793 7.793c-.684 0-1.3-.068-1.915-.273m18.87-9.435c-.137.616-.274 1.3-.274 1.915a7.79 7.79 0 007.794 7.793c.684 0 1.299-.068 1.914-.273M15.902 34.839c.137-.615.273-1.299.273-1.914a7.79 7.79 0 00-7.793-7.794c-.684 0-1.3.068-1.915.273m18.87 9.435c-.137-.615-.274-1.299-.274-1.914a7.79 7.79 0 017.794-7.794c.684 0 1.299.068 1.914.273"
      stroke="#fff" stroke-width="2" stroke-miterlimit="10"/>
  </symbol>
  <symbol id="icon-to" viewBox="0 0 35 36">
    <circle cx="17.691" cy="18" r="16.01" stroke="#fff" stroke-width="2"/>
    <circle cx="17.691" cy="18" r="7.875" stroke="#fff" stroke-width="2"/>
    <circle cx="5.488" cy="18.37" r="1.849" fill="#fff"/>
    <circle cx="29.893" cy="18.37" r="1.849" fill="#fff"/>
    <circle cx="27.305" cy="10.605" r="1.479" fill="#fff"/>
    <circle cx="21.388" cy="6.167" r="1.479" fill="#fff"/>
    <circle cx="13.992" cy="6.167" r="1.479" fill="#fff"/>
    <circle cx="8.076" cy="10.605" r="1.479" fill="#fff"/>
    <circle r="1.479" transform="matrix(-1 0 0 1 27.305 25.396)" fill="#fff"/>
    <circle r="1.479" transform="matrix(-1 0 0 1 21.389 29.833)" fill="#fff"/>
    <circle r="1.479" transform="matrix(-1 0 0 1 13.992 29.833)" fill="#fff"/>
    <circle r="1.479" transform="matrix(-1 0 0 1 8.075 25.396)" fill="#fff"/>
  </symbol>
  <symbol id="icon-tools" viewBox="0 0 60 60">
    <path stroke="#fff" stroke-width="2"
          d="M17.701 29.454h25.216v3.567H17.701zm8.385-3.856l1.627-5.423h5.527l1.355 5.423h-8.509zm.036 11.278l1.572 4.804h5.23l1.573-4.804h-8.375z"/>
    <mask id="a" fill="#fff">
      <path d="M27.252 4.948h6.114v12.228h-6.114V4.948z"/>
    </mask>
    <path
      d="M27.252 4.948v-2h-2v2h2zm6.114 0h2v-2h-2v2zm0 12.228v2h2v-2h-2zm-6.114 0h-2v2h2v-2zm0-10.228h6.114v-4h-6.114v4zm4.114-2v12.228h4V4.948h-4zm2 10.228h-6.114v4h6.114v-4zm-4.114 2V4.948h-4v12.228h4z"
      fill="#fff" mask="url(#a)"/>
    <mask id="b" fill="#fff">
      <path d="M27.252 44.424h6.114v10.7h-6.114v-10.7z"/>
    </mask>
    <path
      d="M27.252 44.424v-2h-2v2h2zm6.114 0h2v-2h-2v2zm0 10.7v2h2v-2h-2zm-6.114 0h-2v2h2v-2zm0-8.7h6.114v-4h-6.114v4zm4.114-2v10.7h4v-10.7h-4zm2 8.7h-6.114v4h6.114v-4zm-4.114 2v-10.7h-4v10.7h4z"
      fill="#fff" mask="url(#b)"/>
    <circle cx="30.309" cy="8.66" r="1.237" fill="#fff"/>
    <circle cx="30.309" cy="51.34" r="1.237" fill="#fff"/>
  </symbol>
  <symbol id="icon-user-small" viewBox="0 0 16 17">
    <path
      d="M8 9.694c1.75 0 3.5-1.472 3.5-4.25C11.5 2.667 10.333 1 8 1S4.5 3.25 4.5 5.444c0 2.778 1.75 4.25 3.5 4.25zm0 0c3.5 0 7 2.931 7 6.306H1c0-3 3.5-6.306 7-6.306z"/>
  </symbol>
  <symbol id="icon-user" viewBox="0 0 21 25">
    <path
      d="M10.348.832c-3.99 0-7.244 3.214-7.244 7.156 0 2.447 1.261 4.62 3.17 5.91C2.57 15.455 0 19.088 0 23.322h2.07c0-4.565 3.658-8.178 8.278-8.178 4.62 0 8.278 3.613 8.278 8.178h2.07c0-4.233-2.571-7.867-6.274-9.424 1.908-1.29 3.17-3.463 3.17-5.91 0-3.942-3.255-7.156-7.244-7.156zm0 2.044c2.87 0 5.174 2.277 5.174 5.112s-2.304 5.111-5.174 5.111c-2.87 0-5.174-2.276-5.174-5.111s2.304-5.112 5.174-5.112z"/>
  </symbol>
  <symbol id="icon-winter" viewBox="0 0 28 31">
    <path
      d="M27.366 19.09l-.54-2.042-5.53 1.46-2.438-1.461v-3.382l2.624-1.523 5.658 1.5.54-2.043-3.612-.957 3.61-2.096-1.06-1.828L23.05 8.79l.934-3.539-2.043-.539-1.47 5.575-2.67 1.55-2.916-1.684V7.137l4.13-4.103-1.488-1.499-2.642 2.624V0h-2.113v4.13l-2.593-2.592L8.684 3.03l4.088 4.087v3.035l-2.917 1.684-2.612-1.508-1.482-5.617-2.043.54.947 3.588L1.06 6.756.002 8.586l3.586 2.071-3.566.941.54 2.043 5.616-1.483-.002-.005 2.622 1.514v3.445L6.165 18.64.56 17.161l-.539 2.043 3.555.938L0 22.218l1.06 1.827 3.613-2.096-.954 3.602 2.042.54 1.495-5.641 2.664-1.547 2.851 1.647v3.134l-4.087 4.087 1.494 1.494 2.593-2.593v4.13h2.113v-4.159l2.642 2.625 1.49-1.5-4.132-4.104V20.55l2.908-1.679 2.664 1.596 1.16 5.46 2.065-.44-.751-3.537 3.362 2.014 1.085-1.813-3.549-2.127 3.538-.934zm-10.62-2.055l-2.918 1.685-2.917-1.685v-3.368l2.917-1.684 2.918 1.684v3.368z"
      fill="#6CA7FF"/>
  </symbol>
</svg>
